#extradata 0:       13, 0x12ed043e
#tb 0: 1/1200000
#media_type 0: video
#codec_id 0: av1
#dimensions 0: 176x144
#sar 0: 0/1
0,          0,          0,    48000,     9106, 0x09d4b5fe
0,      48000,      48000,    48000,    10218, 0xafe5dad1, F=0x0
0,      96000,      96000,    48000,        5, 0x016200e5, F=0x0
0,     144000,     144000,    48000,      697, 0x96cb5a52, F=0x0
0,     192000,     192000,    48000,        5, 0x015200d5, F=0x0
0,     240000,     240000,    48000,     2000, 0x34b2ea8e, F=0x0
0,     288000,     288000,    48000,        5, 0x01920115, F=0x0
0,     336000,     336000,    48000,      836, 0x8a1b9294, F=0x0
0,     384000,     384000,    48000,      761, 0x407a72d4, F=0x0
0,     432000,     432000,    48000,       27, 0x4bde0706, F=0x0
